# xmcd CD database file
#
# Track frame offsets:
#	150
#	15335
#	41055
#	55992
#	90750
#	111495
#	127617
#	152207
#	183417
#
# Disc length: 2563 seconds
#
# Revision: 0
# Processed by: cddbd v1.4PL0 Copyright (c) Steve Scherf et al.
# Submitted via: CDex 1.50
#
DISCID=650a0109
DTITLE=Dudley Moore Trio - Authentic Dud vol. 1
DYEAR=2001
DGENRE=Jazz
TTITLE0=I Love You Samantha
TTITLE1=Yesterdays
TTITLE2=Field Day for Shirley
TTITLE3=Straight Life
TTITLE4=Exactly Like You
TTITLE5=If You Were the Only Girl in the World
TTITLE6=You'd be Nice to Come Home to
TTITLE7=Blues for Boots
TTITLE8=Fly Me to the Moon
EXTD=YEAR: 2001
EXTT0=
EXTT1=
EXTT2=
EXTT3=
EXTT4=
EXTT5=
EXTT6=
EXTT7=
EXTT8=
PLAYORDER=
